<?xml version="1.0" encoding="UTF-8" standalone="no"?>
<!-- Uploaded to: SVG Repo, www.svgrepo.com, Generator: SVG Repo Mixer Tools -->

<svg
   fill="#000000"
   version="1.1"
   id="Capa_1"
   width="555.2511"
   height="800"
   viewBox="0 0 274.64802 395.71"
   xml:space="preserve"
   sodipodi:docname="location-sign.svg"
   xmlns:inkscape="http://www.inkscape.org/namespaces/inkscape"
   xmlns:sodipodi="http://sodipodi.sourceforge.net/DTD/sodipodi-0.dtd"
   xmlns="http://www.w3.org/2000/svg"
   xmlns:svg="http://www.w3.org/2000/svg"><defs
   id="defs1" /><sodipodi:namedview
   id="namedview1"
   pagecolor="#ffffff"
   bordercolor="#000000"
   borderopacity="0.25"
   inkscape:showpageshadow="2"
   inkscape:pageopacity="0.0"
   inkscape:pagecheckerboard="0"
   inkscape:deskcolor="#d1d1d1" />
<g
   id="g1"
   transform="translate(-60.530998)">
	<path
   d="M 197.849,0 C 122.131,0 60.531,61.609 60.531,137.329 c 0,72.887 124.591,243.177 129.896,250.388 l 4.951,6.738 c 0.579,0.792 1.501,1.255 2.471,1.255 0.985,0 1.901,-0.463 2.486,-1.255 l 4.948,-6.738 C 210.591,380.506 335.179,210.216 335.179,137.329 335.179,61.609 273.569,0 197.849,0 Z m 0,88.138 c 27.13,0 49.191,22.062 49.191,49.191 0,27.115 -22.062,49.191 -49.191,49.191 -27.114,0 -49.191,-22.076 -49.191,-49.191 0,-27.129 22.076,-49.191 49.191,-49.191 z"
   id="path1" />
</g>
<path
   style="fill:#ffffff;stroke-width:0.486728;paint-order:stroke markers fill"
   d="m 131.2399,185.86097 c -25.95198,-3.29648 -45.198945,-27.32077 -42.55206,-53.11398 1.233987,-12.02491 6.393526,-22.50984 15.17506,-30.83789 5.92817,-5.622039 13.30427,-9.796503 21.15477,-11.972433 5.53237,-1.533406 19.0803,-1.533406 24.61266,0 13.51196,3.745118 24.75462,12.881383 31.19431,25.349813 6.65602,12.88729 7.04533,28.62631 1.04375,42.19695 -5.49788,12.43168 -18.1068,23.23724 -31.40273,26.91144 -6.68001,1.84595 -12.65081,2.30127 -19.22576,1.4661 z"
   id="path2" /></svg>
